<?xml version="1.0" encoding="UTF-8" standalone="no"?>
<svg
   version="1.1"
   viewBox="0 0 90 380"
   id="svg130"
   sodipodi:docname="puya.svg"
   inkscape:version="1.4 (86a8ad7, 2024-10-11)"
   xmlns:inkscape="http://www.inkscape.org/namespaces/inkscape"
   xmlns:sodipodi="http://sodipodi.sourceforge.net/DTD/sodipodi-0.dtd"
   xmlns="http://www.w3.org/2000/svg"
   xmlns:svg="http://www.w3.org/2000/svg">
  <!-- Generator: Adobe Illustrator 29.1.0, SVG Export Plug-In . SVG Version: 2.1.0 Build 142)  -->
  <defs
     id="defs4">
    <style
       id="style1">
      .st0, .st1, .st2, .st3, .st4, .st5, .st6, .st7, .st8, .st9 {
        fill: none;
      }

      .st10 {
        fill: #ff0200;
      }

      .st1 {
        stroke: #779493;
        stroke-miterlimit: 10.8;
        stroke-width: 1px;
      }

      .st11 {
        fill-rule: evenodd;
        stroke: #505050;
      }

      .st11, .st3 {
        stroke-miterlimit: 11.3;
      }

      .st11, .st12 {
        fill: #474442;
      }

      .st2 {
        stroke-width: 2px;
      }

      .st2, .st4 {
        stroke: #b7ffff;
        stroke-miterlimit: 10;
      }

      .st13 {
        fill: #b7ffff;
      }

      .st14 {
        fill: lime;
      }

      .st3 {
        stroke: #474442;
        stroke-width: .2px;
      }

      .st15 {
        fill: blue;
      }

      .st5 {
        stroke: #a7e4e4;
        stroke-miterlimit: 10.2;
        stroke-width: 1.7px;
      }

      .st16 {
        clip-path: url(#clippath-1);
      }

      .st17 {
        clip-path: url(#clippath-3);
      }

      .st18 {
        clip-path: url(#clippath-2);
      }

      .st19 {
        fill: #505050;
      }

      .st6 {
        stroke: #575f5d;
        stroke-miterlimit: 11.1;
        stroke-width: .5px;
      }

      .st20 {
        opacity: .1;
      }

      .st21 {
        fill: red;
      }

      .st7 {
        stroke: #677978;
        stroke-miterlimit: 11;
        stroke-width: .8px;
      }

      .st22 {
        fill: #fff;
        stroke: #9f9f9f;
        stroke-miterlimit: 15.1;
        stroke-width: 6.7px;
      }

      .st8 {
        stroke: #97cac9;
        stroke-miterlimit: 10.4;
        stroke-width: 1.5px;
      }

      .st9 {
        stroke: #87afae;
        stroke-miterlimit: 10.6;
        stroke-width: 1.2px;
      }

      .st23 {
        display: none;
      }

      .st24 {
        clip-path: url(#clippath);
      }
    </style>
    <clipPath
       id="clippath">
      <rect
         class="st0"
         x="-.3"
         y="0"
         width="90"
         height="380"
         id="rect1" />
    </clipPath>
    <clipPath
       id="clippath-1">
      <rect
         class="st0"
         y="0"
         width="173"
         height="364.3"
         id="rect2" />
    </clipPath>
    <clipPath
       id="clippath-2">
      <rect
         class="st0"
         y="0"
         width="89.9"
         height="380"
         id="rect3" />
    </clipPath>
    <clipPath
       id="clippath-3">
      <rect
         class="st0"
         y="0"
         width="173"
         height="364.3"
         id="rect4" />
    </clipPath>
  </defs>
  <g
     id="svg8">
    <g
       id="_x3C_defs">
      <inkscape:perspective
         id="perspective4197"
         inkscape:persp3d-origin="240 : 126.66667 : 1"
         inkscape:vp_x="0 : 190 : 1"
         inkscape:vp_y="0 : 1000 : 0"
         inkscape:vp_z="480.00001 : 190 : 1"
         sodipodi:type="inkscape:persp3d" />
    </g>
    <sodipodi:namedview
       id="base"
       bordercolor="#666666"
       borderlayer="true"
       borderopacity="1.0"
       inkscape:bbox-nodes="true"
       inkscape:current-layer="Capa_2"
       inkscape:cx="-53.740116"
       inkscape:cy="94.205143"
       inkscape:document-units="mm"
       inkscape:pageopacity="0.0"
       inkscape:pageshadow="2"
       inkscape:showpageshadow="false"
       inkscape:snap-bbox="true"
       inkscape:snap-bbox-edge-midpoints="true"
       inkscape:snap-global="false"
       inkscape:snap-page="true"
       inkscape:window-height="1001"
       inkscape:window-maximized="1"
       inkscape:window-width="1920"
       inkscape:window-x="-9"
       inkscape:window-y="-9"
       inkscape:zoom="3.1261563"
       pagecolor="#ffffff"
       showgrid="false"
       units="px"
       inkscape:pagecheckerboard="0"
       inkscape:deskcolor="#d1d1d1" />
    <g
       id="layer1"
       inkscape:groupmode="layer"
       inkscape:label="Layer 1">
      <g
         id="flowRoot4136">
        <g
           id="flowRegion4138">
          <rect
             id="rect4140"
             x="-129.5"
             y="419.4"
             width="388.6"
             height="117.1" />
        </g>
      </g>
      <g
         id="flowRoot5341">
        <g
           id="flowRegion5343">
          <rect
             id="rect5345"
             x="102.3"
             y="-268.9"
             width="7.8"
             height="72.5" />
        </g>
      </g>
      <g
         id="flowRoot6030">
        <g
           id="flowRegion6032">
          <rect
             id="rect6034"
             class="st22"
             x="-29.9"
             y="50.5"
             width="29.9"
             height="68" />
        </g>
      </g>
    </g>
    <g
       id="layer3"
       class="st23"
       inkscape:groupmode="layer"
       inkscape:label="widgets">
      <rect
         id="rect5091"
         class="st10"
         x="83.2"
         y="193.2"
         width="21.3"
         height="21" />
      <rect
         id="rect5093"
         class="st14"
         x="83.5"
         y="170.1"
         width="19.7"
         height="19.7" />
      <rect
         id="rect4969"
         class="st15"
         x="84.6"
         y="314.5"
         width="20.4"
         height="20.4" />
      <rect
         id="rect4975"
         class="st14"
         x="8.8"
         y="283.9"
         width="20.2"
         height="21.1" />
      <rect
         id="rect4979"
         class="st14"
         x="9.2"
         y="169.9"
         width="21"
         height="21" />
      <rect
         id="rect4981"
         class="st14"
         x="44.7"
         y="168"
         width="21.6"
         height="21.6" />
      <rect
         id="rect4983"
         class="st14"
         x="81.5"
         y="102.8"
         width="22"
         height="22" />
      <rect
         id="rect4989"
         class="st14"
         x="47.1"
         y="103.7"
         width="21"
         height="21" />
      <rect
         id="rect4991"
         class="st14"
         x="8.8"
         y="64.4"
         width="20"
         height="20" />
      <rect
         id="rect5041"
         class="st14"
         x="10.4"
         y="103.8"
         width="21.6"
         height="21.6" />
      <rect
         id="rect5043"
         class="st21"
         x="10.4"
         y="129.5"
         width="21.6"
         height="21.6" />
      <rect
         id="rect5045"
         class="st21"
         x="48.1"
         y="128.7"
         width="19.1"
         height="20.4" />
      <rect
         id="rect5047"
         class="st21"
         x="82.3"
         y="128.8"
         width="20.4"
         height="20.4" />
      <rect
         id="rect5049"
         class="st21"
         x="46.1"
         y="193.5"
         width="20.7"
         height="20.7" />
      <rect
         id="rect5053"
         class="st21"
         x="45.5"
         y="294.6"
         width="20"
         height="20.7" />
      <rect
         id="rect4923"
         class="st14"
         x="8.8"
         y="315.5"
         width="21.3"
         height="20.6" />
      <rect
         id="rect4945"
         class="st21"
         x="38.4"
         y="64.7"
         width="19.7"
         height="19.7" />
      <rect
         id="rect4947"
         class="st15"
         x="84.6"
         y="283.1"
         width="21.3"
         height="20.7" />
      <rect
         id="rect5332"
         class="st14"
         x="8.4"
         y="39"
         width="20.7"
         height="20.7" />
    </g>
  </g>
  <g
     id="Capa_2">
    <path
       id="rect817"
       class="st11"
       d="M-.3,0h90v380H-.3V0Z"
       inkscape:connector-curvature="0" />
    <g
       class="st24"
       clip-path="url(#clippath)"
       id="g12">
      <g
         class="st16"
         clip-path="url(#clippath-1)"
         id="g11">
        <g
           id="g10">
          <path
             class="st2"
             d="M87.5,53.1l4.7,16.6c.8,2.8,3.7,4.4,6.5,3.7l16.8-4.2c1.6-.4,2.8,1.6,1.6,2.8l-12,12.4c-2,2.1-2,5.4,0,7.5l12,12.4c1.2,1.2,0,3.2-1.6,2.8l-16.8-4.2c-2.8-.7-5.7.9-6.5,3.7l-4.7,16.6c-.5,1.6-2.7,1.6-3.2,0l-4.7-16.6c-.8-2.8-3.7-4.4-6.5-3.7l-16.8,4.2c-1.6.4-2.8-1.6-1.6-2.8l12-12.4c2-2.1,2-5.4,0-7.5l-12-12.4c-1.2-1.2,0-3.2,1.6-2.8l16.8,4.2c2.8.7,5.7-.9,6.5-3.7l4.7-16.6c.5-1.6,2.7-1.6,3.2,0Z"
             id="path4" />
          <path
             class="st5"
             d="M131.2,50.6l-11.8,15.6,26.5-6.1c.7-.2,7-1.1,7.3-.6s-5.2,3.6-5.7,4.1l-23.4,12.9,20.7,8.5c-1.6,1.6-28.2,6.6-26.9,8.4s3,1.5,3.1,1.7l25.7,13.5-21.5-1.1,10.3,9.4c1,1,11.5,12.9,10.2,12.6l-28.9-15,7.6,21.4-9.8-8.9c-1.2-.3-12.7-11.7-13.7-11.1s1.5,16.5,1.2,17.7l1.7,13.5-12.3-18.5-4.2,32.3c-.4,1.4-3.8-13.2-4.1-14.6l-2-14.8-12.4,17.9,2.9-24.4c-.2-.6,1-7.5.7-7.9-1.1-1.4-17,13.8-18.9,14.2l-4.8,4.3,6.9-21.3-29.4,15.1c-1.4.3,9.1-11.5,10.1-12.6l10.3-9.4-21.5,1.2,25.8-13.6c.2-.2,2.9-1.5,3-1.7,1.3-1.8-25.3-6.8-26.9-8.4l23.2-5.9-27.6-13.9,22.7,2.4-4.6-4.2c-1-1-16-16.8-14.6-16.5l29.5,15.1-7-21.3,4.7,4.2c1.8.5,17.9,15.7,18.9,14.3s-.9-7.5-.7-8.1l-2.9-24.2,12.4,17.9,2-14.8c.4-1.4,3.8-15.9,4.1-14.5l3.5,30,11.6-20.9-4.7,29.5,18.6-16.4-.6,1.3c.3,1.2-11.7,23.8-10.8,24.4s25.2-12.7,26.4-13Z"
             id="path5" />
          <path
             class="st8"
             d="M163.8,27.7l-33.1,33.5,45.7-10.3c.6-.1,12.5-2.4,12.7-2s-10.7,5.7-11.1,6.2l-41.6,20.3,48.1,10.1c-1.3,1.3-54.3,8.5-53.3,10s5.6,2.6,5.8,2.8l46.7,22.3-48.2-7.7,18.3,16.4c.8.9,23.1,22.7,21.9,22.4l-50.8-28.2,22,44.5-16.8-17.2c-1-.3-22.5-23.2-23.3-22.8s5.2,31.2,4.9,32.2l4.3,24-22.6-43.8-6.5,57.8c-.3,1.2-4.8-28-5.1-29.1l-3-26.2-22.7,43.4,7.5-43.1c-.1-.5,2.5-13.7,2.2-14.1-.9-1.2-30.6,30-32.1,30.4l-8.1,8.3,21.5-44.4-51.2,28.4c-1.2.3,21.1-21.5,21.9-22.4l18.3-16.4-48.2,7.7,46.9-22.4c.1-.1,5.4-2.5,5.5-2.7,1.1-1.5-52-8.6-53.3-10l50.2-7.8L-14,53.7l49.2,8.7-8.5-7.6c-.8-.9-31.9-30.5-30.8-30.2l51.3,28.4L25.7,8.6l8,8.1c1.5.4,31.4,31.8,32.3,30.6s-2.4-13.9-2.3-14.4l-7.5-42.8,22.7,43.3,3-26.2c.3-1.2,4.8-30.2,5.1-29.1l5.9,55.8,22-45.8-10.7,54.8L140.3,6.1l-1.3,2.5c.3,1-24.7,45.2-23.9,45.7s47.7-26.3,48.7-26.6Z"
             id="path6" />
          <path
             class="st9"
             d="M196.3,4.8l-54.4,51.5,64.9-14.5c.5-.1,18-3.7,18.2-3.4s-16.2,7.9-16.5,8.3l-59.7,27.8,75.5,11.6c-1,1.1-80.5,10.3-79.7,11.5s8.3,3.8,8.4,3.9l67.7,31-74.9-14.2,26.4,23.5c.7.7,34.6,32.4,33.7,32.2l-72.7-41.5,36.5,67.7-23.7-25.4c-.8-.2-32.3-34.8-33-34.4s8.8,45.9,8.6,46.7l6.8,34.6-32.9-69.2-8.7,83.3c-.3.9-5.8-42.7-6-43.7l-4-37.6-33,68.8,12.1-61.8c-.1-.4,4-20,3.8-20.3-.7-1-44.2,46.3-45.4,46.6l-11.4,12.2,36.1-67.6-73,41.6c-.9.2,33-31.5,33.7-32.2l26.4-23.5-74.9,14.2,68.1-31.2c.1-.1,7.9-3.6,8-3.7.8-1.2-78.6-10.5-79.7-11.5l77.2-9.8L-50.6,42.2l75.7,15.1-12.3-10.9c-.7-.7-47.9-44.1-46.9-43.9L38.9,44,2.8-23.6l11.2,12c1.2.3,44.9,47.8,45.6,46.9s-4-20.3-3.9-20.7l-12-61.4L76.8,22l4-37.7c.3-.9,5.8-44.6,6-43.6l8.3,81.7,32.4-70.8-16.6,80.2,53.5-57.4-2,3.6c.2.8-37.7,66.6-37.1,67S195.5,5,196.3,4.8Z"
             id="path7" />
          <path
             class="st1"
             d="M228.8-18l-75.6,69.4,84.1-18.8c.3,0,23.5-5,23.6-4.7s-21.7,10.1-22,10.4l-77.9,35.2,102.9,13.1c-.8.8-106.7,12.2-106,13.1s10.9,4.9,11,4.9l88.7,39.7-101.5-20.7,34.5,30.6c.5.5,46.1,42.1,45.4,42l-94.6-54.7,51,90.8-30.7-33.6c-.6-.2-42.2-46.4-42.7-46.1s12.4,60.7,12.2,61.3l9.4,45.1-43.2-94.6-11,108.8c-.2.7-6.8-57.5-7-58.2l-5-49.1-43.3,94.3,16.6-80.5c0-.3,5.5-26.2,5.3-26.4-.5-.7-57.8,62.6-58.7,62.8l-14.8,16.1,50.7-90.8-94.8,54.8c-.7.2,44.9-41.4,45.4-42l34.5-30.6-101.6,20.7L3.3,104.4c0,0,10.5-4.6,10.5-4.7.6-.9-105.3-12.3-106-13.1l104.2-11.8L-87.2,30.7,15,52.1-1.2,37.8c-.5-.5-63.8-57.8-63.1-57.6L30.6,35-20.1-55.8l14.5,15.8c.9.2,58.4,63.9,59,63.1s-5.5-26.7-5.5-27l-16.5-79.9L74.6,10.5l5-49.1c.2-.7,6.8-58.9,7-58.2l10.7,107.6,42.9-95.7-22.5,105.5,70.9-77.9-2.7,4.7c.2.6-50.7,88-50.2,88.3s92.7-53.6,93.3-53.7Z"
             id="path8" />
          <path
             class="st7"
             d="M261.4-40.9l-96.9,87.3,103.2-23c.2,0,29-6.3,29.1-6.1s-27.2,12.3-27.4,12.4l-96.1,42.6,130.3,14.7c-.5.5-132.8,14.1-132.4,14.6s13.5,6,13.6,6l109.7,48.5-128.2-27.3,42.5,37.7c.3.3,57.6,51.9,57.2,51.8l-116.5-68,65.5,114-37.6-41.8c-.4-.1-52-58-52.4-57.8s16,75.4,15.9,75.8l11.9,55.7-53.5-119.9-13.3,134.2c-.1.5-7.8-72.3-7.9-72.8l-6-60.5-53.6,119.7,21.2-99.2c0-.2,7-32.5,6.9-32.6-.4-.5-71.4,78.9-72,79l-18.1,20.1L22.2,150.4l-116.6,68c-.5.1,56.8-51.4,57.2-51.7L5.3,129l-128.2,27.3L-12.6,107.5c0,0,13-5.7,13-5.8.4-.6-131.9-14.1-132.4-14.6L-.8,73.3-123.8,19.2,4.9,46.9-15.1,29.2c-.3-.3-79.8-71.4-79.3-71.3L22.2,25.9-43.1-88l17.7,19.7c.6.2,72,79.9,72.3,79.4s-7.1-33.1-7-33.3l-21.1-98.5L72.4-1l6-60.5c.1-.5,7.8-73.2,7.9-72.7L99.4-.8l53.3-120.7L124.2,9.4l88.3-98.4-3.4,5.9c.1.4-63.7,109.4-63.4,109.5s115.2-67.2,115.6-67.3Z"
             id="path9" />
          <path
             class="st6"
             d="M293.9-63.8l-118.1,105.3,122.4-27.2c.1,0,34.5-7.6,34.6-7.5s-32.7,14.4-32.8,14.5l-114.2,50.1,157.8,16.2c-.3.3-159,15.9-158.8,16.2s16.2,7.1,16.2,7.1l130.8,57.2-154.9-33.8,50.6,44.8c.2.2,69.2,61.6,68.9,61.5l-138.4-81.2,80,137.1-44.6-50.1c-.2,0-61.9-69.5-62-69.4s19.7,90.1,19.6,90.3l14.5,66.2-63.8-145.3-15.5,159.7c0,.2-8.8-87.1-8.8-87.3l-7-71.9L6.4,334l25.8-117.9c0,0,8.5-38.7,8.4-38.8-.2-.2-84.9,95.2-85.2,95.2l-21.4,24L13.9,159.4l-138.5,81.2c-.2,0,68.8-61.4,68.9-61.5L-5,134.4l-154.9,33.8L-28.5,110.6s15.5-6.8,15.5-6.8c.2-.3-158.5-15.9-158.8-16.2L-13.6,71.9-160.3,7.8-5.2,41.8l-23.9-21.1c-.2-.2-95.7-85.1-95.5-85L13.9,16.9-66-120.2l21,23.5c.3,0,85.5,95.9,85.7,95.7s-8.6-39.6-8.6-39.6L6.4-157.7,70.3-12.5l7-71.9c0-.2,8.8-87.5,8.8-87.3L101.5-12.4l63.7-145.7L130.8-1.8l105.8-118.9-4.1,7c0,.2-76.7,130.7-76.5,130.8s137.7-80.8,137.9-80.9Z"
             id="path10" />
          <polygon
             class="st3"
             points="85.9 -209.2 103.6 -24 177.8 -194.6 137.4 -13 260.7 -152.4 166.2 7.9 326.4 -86.6 187.1 36.6 368.7 -3.7 198.1 70.4 383.2 88.2 198.1 105.9 368.7 180.1 187.1 139.7 326.4 263 166.2 168.5 260.7 328.7 137.4 189.4 177.8 371 103.6 200.4 85.9 385.5 68.1 200.4 -6 371 34.3 189.4 -88.9 328.7 5.6 168.5 -154.7 263 -15.3 139.7 -196.9 180.1 -26.3 105.9 -211.5 88.2 -26.3 70.4 -196.9 -3.7 -15.3 36.6 -154.7 -86.6 5.6 7.9 -88.9 -152.4 34.3 -13 -6 -194.6 68.1 -24 85.9 -209.2"
             id="polygon10" />
        </g>
      </g>
    </g>
    <path
       id="path4488"
       class="st4"
       d="M11.7,332.5c16.7-15.3,45.4-15.9,62,.5"
       inkscape:connector-curvature="0"
       sodipodi:nodetypes="cc" />
    <rect
       class="st0"
       x="-.1"
       y="0"
       width="90"
       height="380"
       id="rect12" />
    <ellipse
       class="st19"
       cx="44.7"
       cy="151.9"
       rx="14.8"
       ry="4.7"
       id="ellipse12" />
    <ellipse
       class="st19"
       cx="74.5"
       cy="151.9"
       rx="13"
       ry="4.7"
       id="ellipse13" />
    <ellipse
       class="st19"
       cx="72.9"
       cy="217.3"
       rx="11.7"
       ry="4.7"
       id="ellipse14" />
    <ellipse
       class="st19"
       cx="72.9"
       cy="228"
       rx="11.7"
       ry="4.7"
       id="ellipse15" />
    <ellipse
       class="st19"
       cx="43.4"
       cy="227.9"
       rx="11.7"
       ry="4.7"
       id="ellipse16" />
    <ellipse
       class="st19"
       cx="14.8"
       cy="293"
       rx="11.7"
       ry="4.7"
       id="ellipse17" />
    <ellipse
       class="st19"
       cx="45.4"
       cy="293"
       rx="13.4"
       ry="4.7"
       id="ellipse18" />
    <ellipse
       class="st19"
       cx="13.5"
       cy="228"
       rx="11.7"
       ry="4.7"
       id="ellipse19" />
    <ellipse
       class="st19"
       cx="14.3"
       cy="151.9"
       rx="13"
       ry="4.7"
       id="ellipse20" />
    <g
       id="g23">
      <path
         class="st13"
         d="M32.9,150.7c0-.9.6-1.5,1.5-1.5h2c.9,0,1.5.6,1.5,1.5h-1c0-.4-.2-.6-.5-.6h-2c-.3,0-.5.2-.5.5h0c0,.4.2.6.5.6h2.1c.9,0,1.5.6,1.5,1.5s-.6,1.5-1.5,1.5h-2.2c-.9,0-1.5-.6-1.5-1.5h1c0,.4.2.6.5.6h2.2c.3,0,.5-.2.5-.5h0c0-.4-.2-.6-.5-.6h-2.1c-.9,0-1.5-.6-1.5-1.5Z"
         id="path20" />
      <path
         class="st13"
         d="M39,149.2h5v.9h-2v4.1h-1v-4.1h-2v-.9Z"
         id="path21" />
      <path
         class="st13"
         d="M46.1,150.1v1.1h2v.9h-2v1.1h4v.9h-5v-5h5v.9h-4Z"
         id="path22" />
      <path
         class="st13"
         d="M52.6,154.2h-1v-5h3.6c.9,0,1.5.6,1.5,1.5s-.6,1.4-1.5,1.4h-2.6v2ZM52.6,151.2h2.6c.3,0,.5-.2.5-.5h0c0-.4-.2-.6-.5-.6h-2.6v1.1Z"
         id="path23" />
    </g>
    <g
       id="g26">
      <path
         class="st13"
         d="M6.2,230.5h-1v-5h3.6c.9,0,1.5.6,1.5,1.5s-.6,1.4-1.5,1.4h-2.6v2ZM6.2,227.5h2.6c.3,0,.5-.2.5-.5h0c0-.4-.2-.6-.5-.6h-2.6v1.1Z"
         id="path24" />
      <path
         class="st13"
         d="M10.3,230.5l2-5h1.5l2,5h-1.1l-.4-1h-2.6l-.4,1h-1.1ZM14,228.6l-.9-2.2h0l-.9,2.2h1.9Z"
         id="path25" />
      <path
         class="st13"
         d="M16.9,230.5v-5h3.5c.9,0,1.5.6,1.5,1.5v2c0,.9-.6,1.5-1.5,1.5h-3.5ZM17.9,229.6h2.5c.3,0,.5-.2.5-.5v-2.2c0-.3-.2-.5-.5-.5h-2.5v3.2Z"
         id="path26" />
    </g>
    <path
       d="M87,64.5l3.1,11c.6,2,2.6,3.1,4.5,2.6l11.1-2.8c1.1-.3,1.9,1.1,1.1,1.9l-7.9,8.2c-1.4,1.5-1.4,3.8,0,5.2l7.9,8.2c.8.8,0,2.2-1.1,1.9l-11.1-2.8c-2-.5-4,.7-4.5,2.6l-3.1,11c-.3,1.1-1.9,1.1-2.2,0l-3.1-11c-.6-2-2.6-3.1-4.5-2.6l-11.1,2.8c-1.1.3-1.9-1.1-1.1-1.9l7.9-8.2c1.4-1.5,1.4-3.8,0-5.2l-7.9-8.2c-.8-.8,0-2.2,1.1-1.9l11.1,2.8c2,.5,4-.7,4.5-2.6l3.1-11c.3-1.1,1.9-1.1,2.2,0Z"
       id="path27" />
    <g
       id="g46">
      <path
         d="M4.1,371.6c0-2,1.2-2.6,3.2-2.6h5.6v2.4h-5.1v.7h5.1v2.2h-5.2c-2.2,0-3.6-.6-3.6-2.6Z"
         id="path28" />
      <path
         d="M15.7,368.9h4.8l2.4,5.2h-3.2l-.3-.7h-2.5l-.3.7h-3.2l2.4-5.2ZM18.7,372l-.5-1.1h-.1l-.5,1.1h1.2Z"
         id="path29" />
      <path
         d="M25.2,371.1h-2.6v-2.2h8.1v2.2h-2.6v3.1h-2.9v-3.1Z"
         id="path30" />
      <path
         d="M32.8,368.9h4.8l2.4,5.2h-3.2l-.3-.7h-2.5l-.3.7h-3.2l2.4-5.2ZM35.7,372l-.5-1.1h-.1l-.5,1.1h1.2Z"
         id="path31" />
      <path
         d="M42.2,371.1h-2.6v-2.2h8.1v2.2h-2.6v3.1h-2.9v-3.1Z"
         id="path32" />
      <path
         d="M48.4,371.8v-2.9h3.1v2.9h1.9v-2.9h3.1v2.9c0,1.8-1.2,2.5-4,2.5s-4-.7-4-2.5Z"
         id="path33" />
      <path
         d="M57.6,368.9h4.4l.7,2h.1l.7-2h4.2v5.2h-2.8v-2.8h-.1l-1.1,2.8h-2.2l-1.1-2.8h-.1v2.8h-2.8v-5.2Z"
         id="path34" />
      <path
         d="M69.1,368.9h5.3c2.3,0,2.8.3,2.8,1.3s-.6,1.1-2.3,1.2h0c0,0,.2,0,.2,0,1.8,0,2.3.3,2.3,1.3s-.6,1.4-2.8,1.4h-5.6v-5.2ZM74.1,371.1v-.6h-2.1v.6h2.1ZM74.2,372.8v-.8h-2.2v.8h2.2Z"
         id="path35" />
      <path
         d="M78,371.5c0-1.8,1.5-2.7,4.5-2.7s4.4.9,4.4,2.7-1.4,2.8-4.4,2.8-4.5-.9-4.5-2.8ZM83.7,372v-.9h-2.5v.9h2.5Z"
         id="path36" />
      <path
         d="M5.6,377.3c0,0-.2-.1-.2-.2,0,0,0-.2,0-.3v-1.2c0-.1,0-.2,0-.3,0,0,.1-.2.2-.2,0,0,.2,0,.3,0h.6v.3h-.6c-.1,0-.2,0-.3.1s-.1.2-.1.3v.4h.7v.3h-.7v.5c0,.1,0,.2.1.3s.2.1.3.1h.6v.3h-.6c-.1,0-.2,0-.3,0Z"
         id="path37" />
      <path
         d="M14.5,377.3c0,0-.2-.1-.2-.2,0,0,0-.2,0-.3v-1.8h.3v1.8c0,0,0,.1,0,.2s0,.1.1.1.1,0,.2,0h.4v.3h-.4c-.1,0-.2,0-.3,0Z"
         id="path38" />
      <path
         d="M23.2,377.3c0,0-.2-.1-.2-.2,0,0,0-.2,0-.3v-1.2c0-.1,0-.2,0-.3,0,0,.1-.2.2-.2,0,0,.2,0,.3,0h.6v.3h-.6c-.1,0-.2,0-.3.1s-.1.2-.1.3v.4h.7v.3h-.7v.5c0,.1,0,.2.1.3s.2.1.3.1h.6v.3h-.6c-.1,0-.2,0-.3,0Z"
         id="path39" />
      <path
         d="M32.1,377.3c0,0-.2-.1-.2-.2s0-.2,0-.3v-1.2c0-.1,0-.2,0-.3s.1-.2.2-.2c0,0,.2,0,.3,0h.6v.3h-.6c0,0-.2,0-.2.1,0,0-.1.2-.1.3v1.2c0,0,0,.1,0,.2,0,0,0,.1.1.1,0,0,.1,0,.2,0h.6v.3h-.6c-.1,0-.2,0-.3,0Z"
         id="path40" />
      <path
         d="M41.1,375.2h-.6v-.3h1.4v.3h-.6v2.2h-.3v-2.2Z"
         id="path41" />
      <path
         d="M49.8,377.3c0,0-.2-.1-.2-.2,0,0,0-.2,0-.3v-1.2c0-.1,0-.2,0-.3,0,0,.1-.2.2-.2,0,0,.2,0,.3,0h.2c.1,0,.2,0,.3,0,0,0,.2.1.2.2,0,0,0,.2,0,.3v1.2c0,.1,0,.2,0,.3,0,0-.1.2-.2.2,0,0-.2,0-.3,0h-.2c-.1,0-.2,0-.3,0ZM50.6,377c0,0,.1-.2.1-.3v-1.2c0,0,0-.1,0-.2s0-.1-.1-.1c0,0-.1,0-.2,0h-.2c0,0-.2,0-.2.1,0,0-.1.2-.1.3v1.2c0,0,0,.1,0,.2,0,0,0,.1.1.1,0,0,.1,0,.2,0h.2c0,0,.2,0,.2-.1Z"
         id="path42" />
      <path
         d="M58.8,374.9h.3l.9,1.6h0s0-1.6,0-1.6h.3v2.4h-.3v-.6.2c0,0-.9-1.7-.9-1.7h0s0,2.1,0,2.1h-.3v-2.4Z"
         id="path43" />
      <path
         d="M68,374.9h.3v2.4h-.3v-2.4Z"
         id="path44" />
      <path
         d="M76.4,377.3c0,0-.2-.1-.2-.2,0,0,0-.2,0-.3v-1.2c0-.1,0-.2,0-.3,0,0,.1-.2.2-.2,0,0,.2,0,.3,0h.6v.3h-.6c0,0-.2,0-.2.1,0,0-.1.2-.1.3v1.2c0,0,0,.1,0,.2,0,0,0,.1.1.1,0,0,.1,0,.2,0h.6v.3h-.6c-.1,0-.2,0-.3,0Z"
         id="path45" />
      <path
         d="M85,377.1h.8c0,0,.2,0,.2-.1,0,0,0-.2,0-.3h0c0-.2,0-.3,0-.4,0,0-.1-.1-.2-.1h-.2c-.1,0-.2,0-.3,0,0,0-.2-.1-.2-.2s0-.2,0-.3h0c0-.2,0-.3,0-.4s.1-.2.2-.2c0,0,.2,0,.3,0h.6v.3h-.6c-.1,0-.2,0-.3.1,0,0,0,.2,0,.3s0,.2.1.3c0,0,.1.1.2.1h.2c.1,0,.2,0,.3,0,0,0,.2.1.2.2,0,0,0,.2,0,.3h0c0,.2,0,.3,0,.4,0,0-.1.2-.2.2,0,0-.2,0-.3,0h-.8v-.3Z"
         id="path46" />
    </g>
    <path
       class="st12"
       d="M-.2,21.4h87c3.9,0,7,3.1,7,7h0c0,3.9-3.1,7-7,7H6.8c-3.9,0-7-3.1-7-7v-7H-.2Z"
       id="path47" />
    <g
       id="g71">
      <path
         class="st13"
         d="M7.7,151.7h3.6v-2.5h1.2v6h-1.2v-2.5h-3.6v2.5h-1.2v-6h1.2v2.5Z"
         id="path69" />
      <path
         class="st13"
         d="M14.3,155.2v-6h1.2v6h-1.2Z"
         id="path70" />
      <path
         class="st13"
         d="M16.9,149.2h6v1.1h-2.4v4.9h-1.2v-4.9h-2.4v-1.1Z"
         id="path71" />
    </g>
    <g
       id="g75">
      <path
         class="st13"
         d="M5.7,348.8c0-.4-.4-.6-1.4-.6-1.6,0-2.3-.4-2.3-1.4s.8-1.6,2.3-1.6,2.3.6,2.3,1.6h-1c0-.4-.5-.7-1.3-.7s-1.3.2-1.3.7.4.5,1.4.5c1.7,0,2.4.5,2.4,1.5s-.8,1.6-2.4,1.6-2.4-.6-2.4-1.6h1c0,.4.6.7,1.4.7s1.4-.3,1.4-.7Z"
         id="path72" />
      <path
         class="st13"
         d="M9.2,348.6l-2.1-3.3h1.2l1,1.5c.3.5.5.9.5.9h0s.1-.4.5-.9l1-1.5h1.2l-2.1,3.3v1.8h-1v-1.8Z"
         id="path73" />
      <path
         class="st13"
         d="M14.3,346.9v3.5h-1v-5h.9l3.1,3.5v-3.5h1v5h-.9l-3.1-3.5Z"
         id="path74" />
      <path
         class="st13"
         d="M20.9,348.9c0,.3.2.5.5.5h2c.3,0,.5-.2.5-.5v-.2h1c0,1-.6,1.6-1.5,1.6h-2c-.9,0-1.5-.6-1.5-1.5v-2c0-.9.6-1.5,1.5-1.5h2c.9,0,1.5.6,1.5,1.5h0c0,0-1,0-1,0v-.2c0-.3-.2-.5-.5-.5h-2c-.3,0-.5.2-.5.5v2.2Z"
         id="path75" />
    </g>
    <g
       id="g81">
      <path
         class="st13"
         d="M37.7,293c0,.9-.7,1.6-1.6,1.6s-1.6-.7-1.6-1.6.7-1.6,1.6-1.6,1.6.7,1.6,1.6ZM37.1,293c0-.6-.4-1-.9-1s-.9.4-.9,1,.4,1,.9,1,.9-.4.9-1Z"
         id="path76" />
      <path
         class="st13"
         d="M40.8,293.1v-1.6h.6v1.6c0,.9-.6,1.5-1.5,1.5s-1.5-.6-1.5-1.5v-1.6h.6v1.6c0,.5.4.9.9.9s.9-.4.9-.9Z"
         id="path77" />
      <path
         class="st13"
         d="M42.1,291.5h3v.5h-1.2v2.5h-.6v-2.5h-1.2v-.5Z"
         id="path78" />
      <path
         class="st13"
         d="M46.4,294.5h-.6v-3h2.2c.5,0,.9.4.9.9s-.4.9-.9.9h-1.6v1.2ZM46.4,292.7h1.6c.2,0,.3-.1.3-.3h0c0-.3-.1-.4-.3-.4h-1.6v.7Z"
         id="path79" />
      <path
         class="st13"
         d="M52,293.1v-1.6h.6v1.6c0,.9-.6,1.5-1.5,1.5s-1.5-.6-1.5-1.5v-1.6h.6v1.6c0,.5.4.9.9.9s.9-.4.9-.9Z"
         id="path80" />
      <path
         class="st13"
         d="M53.3,291.5h3v.5h-1.2v2.5h-.6v-2.5h-1.2v-.5Z"
         id="path81" />
    </g>
    <g
       id="g86">
      <path
         class="st13"
         d="M8.2,293.3h.7c-.1.8-.8,1.4-1.7,1.4s-1.7-.7-1.7-1.7.7-1.7,1.7-1.7,1.6.6,1.7,1.4h-.7c-.1-.5-.5-.8-1-.8s-1,.5-1,1.1.4,1.1,1,1.1.9-.3,1-.8Z"
         id="path82" />
      <path
         class="st13"
         d="M9.8,291.4h.7v2.7h2v.6h-2.7v-3.3Z"
         id="path83" />
      <path
         class="st13"
         d="M14.6,293.2l-.7.6v.9h-.7v-3.3h.7v1.6l1.8-1.6h.9l-1.6,1.4,1.6,1.9h-.8l-1.2-1.5Z"
         id="path84" />
      <path
         class="st13"
         d="M19,294.7v-3.3h.7v3.3h-.7Z"
         id="path85" />
      <path
         class="st13"
         d="M21.4,292.4v2.3h-.7v-3.3h.6l2.1,2.3v-2.3h.7v3.3h-.6l-2.1-2.3Z"
         id="path86" />
    </g>
    <g
       id="g92">
      <path
         class="st13"
         d="M32.9,229.3l1.2-2.8h.8l1.2,2.8h-.6l-.2-.6h-1.5l-.2.6h-.6ZM35.1,228.2l-.5-1.2h0l-.5,1.2h1.1Z"
         id="path87" />
      <path
         class="st13"
         d="M37.3,228.5c0,.2.1.3.3.3h1.1c.2,0,.3-.1.3-.3h0c0-.1.6-.1.6-.1h0c0,.6-.3.9-.8.9h-1.1c-.5,0-.8-.3-.8-.8v-1.1c0-.5.3-.8.8-.8h1.1c.5,0,.8.3.8.8h0c0,0-.6,0-.6,0h0c0-.3-.1-.4-.3-.4h-1.1c-.2,0-.3.1-.3.3v1.2Z"
         id="path88" />
      <path
         class="st13"
         d="M40.9,228.5c0,.2.1.3.3.3h1.1c.2,0,.3-.1.3-.3h0c0-.1.6-.1.6-.1h0c0,.6-.3.9-.8.9h-1.1c-.5,0-.8-.3-.8-.8v-1.1c0-.5.3-.8.8-.8h1.1c.5,0,.8.3.8.8h0c0,0-.6,0-.6,0h0c0-.3-.1-.4-.3-.4h-1.1c-.2,0-.3.1-.3.3v1.2Z"
         id="path89" />
      <path
         class="st13"
         d="M44.6,227v.7h1.6v.5h-1.6v.7h2.2v.5h-2.8v-2.8h2.8v.5h-2.2Z"
         id="path90" />
      <path
         class="st13"
         d="M48.2,227.4v2h-.6v-2.8h.5l1.8,2v-2h.6v2.8h-.5l-1.8-2Z"
         id="path91" />
      <path
         class="st13"
         d="M51.1,226.5h2.8v.5h-1.1v2.3h-.6v-2.3h-1.1v-.5Z"
         id="path92" />
    </g>
    <g
       id="g98">
      <path
         class="st13"
         d="M62.5,229.3l1.2-2.8h.8l1.2,2.8h-.6l-.2-.6h-1.5l-.2.6h-.6ZM64.6,228.2l-.5-1.2h0l-.5,1.2h1.1Z"
         id="path93" />
      <path
         class="st13"
         d="M66.8,228.5c0,.2.1.3.3.3h1.1c.2,0,.3-.1.3-.3h0c0-.1.6-.1.6-.1h0c0,.6-.3.9-.8.9h-1.1c-.5,0-.8-.3-.8-.8v-1.1c0-.5.3-.8.8-.8h1.1c.5,0,.8.3.8.8h0c0,0-.6,0-.6,0h0c0-.3-.1-.4-.3-.4h-1.1c-.2,0-.3.1-.3.3v1.2Z"
         id="path94" />
      <path
         class="st13"
         d="M70.5,228.5c0,.2.1.3.3.3h1.1c.2,0,.3-.1.3-.3h0c0-.1.6-.1.6-.1h0c0,.6-.3.9-.8.9h-1.1c-.5,0-.8-.3-.8-.8v-1.1c0-.5.3-.8.8-.8h1.1c.5,0,.8.3.8.8h0c0,0-.6,0-.6,0h0c0-.3-.1-.4-.3-.4h-1.1c-.2,0-.3.1-.3.3v1.2Z"
         id="path95" />
      <path
         class="st13"
         d="M74.1,227v.7h1.6v.5h-1.6v.7h2.2v.5h-2.8v-2.8h2.8v.5h-2.2Z"
         id="path96" />
      <path
         class="st13"
         d="M77.7,227.4v2h-.6v-2.8h.5l1.8,2v-2h.6v2.8h-.5l-1.8-2Z"
         id="path97" />
      <path
         class="st13"
         d="M80.6,226.5h2.8v.5h-1.1v2.3h-.6v-2.3h-1.1v-.5Z"
         id="path98" />
    </g>
    <g
       id="g103">
      <path
         class="st13"
         d="M67.7,152.2c0-.3-.3-.4-1.1-.4-1.2,0-1.7-.3-1.7-1.1s.6-1.2,1.7-1.2,1.7.5,1.7,1.2h-.7c0-.3-.4-.5-1-.5s-1,.2-1,.5.3.4,1,.4c1.2,0,1.8.3,1.8,1.1s-.6,1.2-1.8,1.2-1.8-.5-1.8-1.2h.7c0,.3.4.5,1,.5s1-.2,1-.5Z"
         id="path99" />
      <path
         class="st13"
         d="M70.2,151.2h2.2v-1.5h.7v3.7h-.7v-1.5h-2.2v1.5h-.7v-3.7h.7v1.5Z"
         id="path100" />
      <path
         class="st13"
         d="M74.3,153.4v-3.7h.7v3.7h-.7Z"
         id="path101" />
      <path
         class="st13"
         d="M79,151.2v.7h-2.1v1.5h-.7v-3.7h3.6v.7h-2.8v.9h2.1Z"
         id="path102" />
      <path
         class="st13"
         d="M80.4,149.6h3.7v.7h-1.5v3.1h-.7v-3.1h-1.5v-.7Z"
         id="path103" />
    </g>
    <g
       id="g108">
      <path
         class="st13"
         d="M66.2,217.7c0-.3-.3-.4-1.1-.4-1.2,0-1.7-.3-1.7-1.1s.6-1.2,1.7-1.2,1.7.5,1.7,1.2h-.7c0-.3-.4-.5-1-.5s-1,.2-1,.5.3.4,1,.4c1.2,0,1.8.3,1.8,1.1s-.6,1.2-1.8,1.2-1.8-.5-1.8-1.2h.7c0,.3.4.5,1,.5s1-.2,1-.5Z"
         id="path104" />
      <path
         class="st13"
         d="M68.6,216.6h2.2v-1.5h.7v3.7h-.7v-1.5h-2.2v1.5h-.7v-3.7h.7v1.5Z"
         id="path105" />
      <path
         class="st13"
         d="M72.7,218.8v-3.7h.7v3.7h-.7Z"
         id="path106" />
      <path
         class="st13"
         d="M77.4,216.6v.7h-2.1v1.5h-.7v-3.7h3.6v.7h-2.8v.9h2.1Z"
         id="path107" />
      <path
         class="st13"
         d="M78.8,215.1h3.7v.7h-1.5v3.1h-.7v-3.1h-1.5v-.7Z"
         id="path108" />
    </g>
    <g
       class="st18"
       clip-path="url(#clippath-2)"
       id="g118">
      <g
         class="st20"
         id="g117">
        <g
           class="st17"
           clip-path="url(#clippath-3)"
           id="g116">
          <g
             id="g115">
            <path
               class="st2"
               d="M87.5,53.1l4.7,16.6c.8,2.8,3.7,4.4,6.5,3.7l16.8-4.2c1.6-.4,2.8,1.6,1.6,2.8l-12,12.4c-2,2.1-2,5.4,0,7.5l12,12.4c1.2,1.2,0,3.2-1.6,2.8l-16.8-4.2c-2.8-.7-5.7.9-6.5,3.7l-4.7,16.6c-.5,1.6-2.7,1.6-3.2,0l-4.7-16.6c-.8-2.8-3.7-4.4-6.5-3.7l-16.8,4.2c-1.6.4-2.8-1.6-1.6-2.8l12-12.4c2-2.1,2-5.4,0-7.5l-12-12.4c-1.2-1.2,0-3.2,1.6-2.8l16.8,4.2c2.8.7,5.7-.9,6.5-3.7l4.7-16.6c.5-1.6,2.7-1.6,3.2,0Z"
               id="path109" />
            <path
               class="st5"
               d="M131.2,50.6l-11.8,15.6,26.5-6.1c.7-.2,7-1.1,7.3-.6s-5.2,3.6-5.7,4.1l-23.4,12.9,20.7,8.5c-1.6,1.6-28.2,6.6-26.9,8.4s3,1.5,3.1,1.7l25.7,13.5-21.5-1.1,10.3,9.4c1,1,11.5,12.9,10.2,12.6l-28.9-15,7.6,21.4-9.8-8.9c-1.2-.3-12.7-11.7-13.7-11.1s1.5,16.5,1.2,17.7l1.7,13.5-12.3-18.5-4.2,32.3c-.4,1.4-3.8-13.2-4.1-14.6l-2-14.8-12.4,17.9,2.9-24.4c-.2-.6,1-7.5.7-7.9-1.1-1.4-17,13.8-18.9,14.2l-4.8,4.3,6.9-21.3-29.4,15.1c-1.4.3,9.1-11.5,10.1-12.6l10.3-9.4-21.5,1.2,25.8-13.6c.2-.2,2.9-1.5,3-1.7,1.3-1.8-25.3-6.8-26.9-8.4l23.2-5.9-27.6-13.9,22.7,2.4-4.6-4.2c-1-1-16-16.8-14.6-16.5l29.5,15.1-7-21.3,4.7,4.2c1.8.5,17.9,15.7,18.9,14.3s-.9-7.5-.7-8.1l-2.9-24.2,12.4,17.9,2-14.8c.4-1.4,3.8-15.9,4.1-14.5l3.5,30,11.6-20.9-4.7,29.5,18.6-16.4-.6,1.3c.3,1.2-11.7,23.8-10.8,24.4s25.2-12.7,26.4-13Z"
               id="path110" />
            <path
               class="st8"
               d="M163.8,27.7l-33.1,33.5,45.7-10.3c.6-.1,12.5-2.4,12.7-2s-10.7,5.7-11.1,6.2l-41.6,20.3,48.1,10.1c-1.3,1.3-54.3,8.5-53.3,10s5.6,2.6,5.8,2.8l46.7,22.3-48.2-7.7,18.3,16.4c.8.9,23.1,22.7,21.9,22.4l-50.8-28.2,22,44.5-16.8-17.2c-1-.3-22.5-23.2-23.3-22.8s5.2,31.2,4.9,32.2l4.3,24-22.6-43.8-6.5,57.8c-.3,1.2-4.8-28-5.1-29.1l-3-26.2-22.7,43.4,7.5-43.1c-.1-.5,2.5-13.7,2.2-14.1-.9-1.2-30.6,30-32.1,30.4l-8.1,8.3,21.5-44.4-51.2,28.4c-1.2.3,21.1-21.5,21.9-22.4l18.3-16.4-48.2,7.7,46.9-22.4c.1-.1,5.4-2.5,5.5-2.7,1.1-1.5-52-8.6-53.3-10l50.2-7.8L-14,53.7l49.2,8.7-8.5-7.6c-.8-.9-31.9-30.5-30.8-30.2l51.3,28.4L25.7,8.6l8,8.1c1.5.4,31.4,31.8,32.3,30.6s-2.4-13.9-2.3-14.4l-7.5-42.8,22.7,43.3,3-26.2c.3-1.2,4.8-30.2,5.1-29.1l5.9,55.8,22-45.8-10.7,54.8L140.3,6.1l-1.3,2.5c.3,1-24.7,45.2-23.9,45.7s47.7-26.3,48.7-26.6Z"
               id="path111" />
            <path
               class="st9"
               d="M196.3,4.8l-54.4,51.5,64.9-14.5c.5-.1,18-3.7,18.2-3.4s-16.2,7.9-16.5,8.3l-59.7,27.8,75.5,11.6c-1,1.1-80.5,10.3-79.7,11.5s8.3,3.8,8.4,3.9l67.7,31-74.9-14.2,26.4,23.5c.7.7,34.6,32.4,33.7,32.2l-72.7-41.5,36.5,67.7-23.7-25.4c-.8-.2-32.3-34.8-33-34.4s8.8,45.9,8.6,46.7l6.8,34.6-32.9-69.2-8.7,83.3c-.3.9-5.8-42.7-6-43.7l-4-37.6-33,68.8,12.1-61.8c-.1-.4,4-20,3.8-20.3-.7-1-44.2,46.3-45.4,46.6l-11.4,12.2,36.1-67.6-73,41.6c-.9.2,33-31.5,33.7-32.2l26.4-23.5-74.9,14.2,68.1-31.2c.1-.1,7.9-3.6,8-3.7.8-1.2-78.6-10.5-79.7-11.5l77.2-9.8L-50.6,42.2l75.7,15.1-12.3-10.9c-.7-.7-47.9-44.1-46.9-43.9L38.9,44,2.8-23.6l11.2,12c1.2.3,44.9,47.8,45.6,46.9s-4-20.3-3.9-20.7l-12-61.4L76.8,22l4-37.7c.3-.9,5.8-44.6,6-43.6l8.3,81.7,32.4-70.8-16.6,80.2,53.5-57.4-2,3.6c.2.8-37.7,66.6-37.1,67S195.5,5,196.3,4.8Z"
               id="path112" />
            <path
               class="st1"
               d="M228.8-18l-75.6,69.4,84.1-18.8c.3,0,23.5-5,23.6-4.7s-21.7,10.1-22,10.4l-77.9,35.2,102.9,13.1c-.8.8-106.7,12.2-106,13.1s10.9,4.9,11,4.9l88.7,39.7-101.5-20.7,34.5,30.6c.5.5,46.1,42.1,45.4,42l-94.6-54.7,51,90.8-30.7-33.6c-.6-.2-42.2-46.4-42.7-46.1s12.4,60.7,12.2,61.3l9.4,45.1-43.2-94.6-11,108.8c-.2.7-6.8-57.5-7-58.2l-5-49.1-43.3,94.3,16.6-80.5c0-.3,5.5-26.2,5.3-26.4-.5-.7-57.8,62.6-58.7,62.8l-14.8,16.1,50.7-90.8-94.8,54.8c-.7.2,44.9-41.4,45.4-42l34.5-30.6-101.6,20.7L3.3,104.4c0,0,10.5-4.6,10.5-4.7.6-.9-105.3-12.3-106-13.1l104.2-11.8L-87.2,30.7,15,52.1-1.2,37.8c-.5-.5-63.8-57.8-63.1-57.6L30.6,35-20.1-55.8l14.5,15.8c.9.2,58.4,63.9,59,63.1s-5.5-26.7-5.5-27l-16.5-79.9L74.6,10.5l5-49.1c.2-.7,6.8-58.9,7-58.2l10.7,107.6,42.9-95.7-22.5,105.5,70.9-77.9-2.7,4.7c.2.6-50.7,88-50.2,88.3s92.7-53.6,93.3-53.7Z"
               id="path113" />
            <path
               class="st7"
               d="M261.4-40.9l-96.9,87.3,103.2-23c.2,0,29-6.3,29.1-6.1s-27.2,12.3-27.4,12.4l-96.1,42.6,130.3,14.7c-.5.5-132.8,14.1-132.4,14.6s13.5,6,13.6,6l109.7,48.5-128.2-27.3,42.5,37.7c.3.3,57.6,51.9,57.2,51.8l-116.5-68,65.5,114-37.6-41.8c-.4-.1-52-58-52.4-57.8s16,75.4,15.9,75.8l11.9,55.7-53.5-119.9-13.3,134.2c-.1.5-7.8-72.3-7.9-72.8l-6-60.5-53.6,119.7,21.2-99.2c0-.2,7-32.5,6.9-32.6-.4-.5-71.4,78.9-72,79l-18.1,20.1L22.2,150.4l-116.6,68c-.5.1,56.8-51.4,57.2-51.7L5.3,129l-128.2,27.3L-12.6,107.5c0,0,13-5.7,13-5.8.4-.6-131.9-14.1-132.4-14.6L-.8,73.3-123.8,19.2,4.9,46.9-15.1,29.2c-.3-.3-79.8-71.4-79.3-71.3L22.2,25.9-43.1-88l17.7,19.7c.6.2,72,79.9,72.3,79.4s-7.1-33.1-7-33.3l-21.1-98.5L72.4-1l6-60.5c.1-.5,7.8-73.2,7.9-72.7L99.4-.8l53.3-120.7L124.2,9.4l88.3-98.4-3.4,5.9c.1.4-63.7,109.4-63.4,109.5s115.2-67.2,115.6-67.3Z"
               id="path114" />
            <path
               class="st6"
               d="M293.9-63.8l-118.1,105.3,122.4-27.2c.1,0,34.5-7.6,34.6-7.5s-32.7,14.4-32.8,14.5l-114.2,50.1,157.8,16.2c-.3.3-159,15.9-158.8,16.2s16.2,7.1,16.2,7.1l130.8,57.2-154.9-33.8,50.6,44.8c.2.2,69.2,61.6,68.9,61.5l-138.4-81.2,80,137.1-44.6-50.1c-.2,0-61.9-69.5-62-69.4s19.7,90.1,19.6,90.3l14.5,66.2-63.8-145.3-15.5,159.7c0,.2-8.8-87.1-8.8-87.3l-7-71.9L6.4,334l25.8-117.9c0,0,8.5-38.7,8.4-38.8-.2-.2-84.9,95.2-85.2,95.2l-21.4,24L13.9,159.4l-138.5,81.2c-.2,0,68.8-61.4,68.9-61.5L-5,134.4l-154.9,33.8L-28.5,110.6s15.5-6.8,15.5-6.8c.2-.3-158.5-15.9-158.8-16.2L-13.6,71.9-160.3,7.8-5.2,41.8l-23.9-21.1c-.2-.2-95.7-85.1-95.5-85L13.9,16.9-66-120.2l21,23.5c.3,0,85.5,95.9,85.7,95.7s-8.6-39.6-8.6-39.6L6.4-157.7,70.3-12.5l7-71.9c0-.2,8.8-87.5,8.8-87.3L101.5-12.4l63.7-145.7L130.8-1.8l105.8-118.9-4.1,7c0,.2-76.7,130.7-76.5,130.8s137.7-80.8,137.9-80.9Z"
               id="path115" />
            <polygon
               class="st3"
               points="85.9 -209.2 103.6 -24 177.8 -194.6 137.4 -13 260.7 -152.4 166.2 7.9 326.4 -86.6 187.1 36.6 368.7 -3.7 198.1 70.4 383.2 88.2 198.1 105.9 368.7 180.1 187.1 139.7 326.4 263 166.2 168.5 260.7 328.7 137.4 189.4 177.8 371 103.6 200.4 85.9 385.5 68.1 200.4 -6 371 34.3 189.4 -88.9 328.7 5.6 168.5 -154.7 263 -15.3 139.7 -196.9 180.1 -26.3 105.9 -211.5 88.2 -26.3 70.4 -196.9 -3.7 -15.3 36.6 -154.7 -86.6 5.6 7.9 -88.9 -152.4 34.3 -13 -6 -194.6 68.1 -24 85.9 -209.2"
               id="polygon115" />
          </g>
        </g>
      </g>
    </g>
    <g
       id="g126">
      <path
         class="st13"
         d="M35.7,349.6l1.7-4.2h1.3l1.7,4.2h-.9l-.3-.8h-2.2l-.3.8h-.9ZM38.8,348l-.8-1.9h0l-.8,1.9h1.6Z"
         id="path118" />
      <path
         class="st13"
         d="M42.1,348.5c0,.3.2.4.4.4h1.7c.3,0,.4-.2.4-.4v-.2h.8c0,.8-.5,1.4-1.3,1.4h-1.7c-.8,0-1.3-.5-1.3-1.3v-1.7c0-.8.5-1.3,1.3-1.3h1.7c.8,0,1.3.5,1.3,1.3h0c0,0-.8,0-.8,0v-.2c0-.3-.2-.4-.4-.4h-1.7c-.3,0-.4.2-.4.4v1.9Z"
         id="path119" />
      <path
         class="st13"
         d="M47.6,348.5c0,.3.2.4.4.4h1.7c.3,0,.4-.2.4-.4v-.2h.8c0,.8-.5,1.4-1.3,1.4h-1.7c-.8,0-1.3-.5-1.3-1.3v-1.7c0-.8.5-1.3,1.3-1.3h1.7c.8,0,1.3.5,1.3,1.3h0c0,0-.8,0-.8,0v-.2c0-.3-.2-.4-.4-.4h-1.7c-.3,0-.4.2-.4.4v1.9Z"
         id="path120" />
      <path
         class="st13"
         d="M53.1,346.2v1h2.5v.8h-2.5v1h3.3v.8h-4.1v-4.2h4.1v.8h-3.3Z"
         id="path121" />
      <path
         class="st13"
         d="M58.4,346.7v2.9h-.8v-4.2h.8l2.6,2.9v-2.9h.8v4.2h-.8l-2.6-2.9Z"
         id="path122" />
      <path
         class="st13"
         d="M62.8,345.4h4.2v.8h-1.7v3.5h-.8v-3.5h-1.7v-.8Z"
         id="path123" />
      <path
         class="st13"
         d="M74.3,347.5c0,1.3-.9,2.2-2.2,2.2s-2.2-.9-2.2-2.2.9-2.2,2.2-2.2,2.2.9,2.2,2.2ZM73.4,347.5c0-.8-.6-1.4-1.3-1.4s-1.3.6-1.3,1.4.6,1.4,1.3,1.4,1.3-.6,1.3-1.4Z"
         id="path124" />
      <path
         class="st13"
         d="M78.3,348.9c.3,0,.4-.2.4-.4v-3h.8v3c0,.8-.5,1.3-1.3,1.3h-1.7c-.8,0-1.3-.5-1.3-1.3v-3h.8v3c0,.3.2.4.4.4h1.7Z"
         id="path125" />
      <path
         class="st13"
         d="M80.5,345.4h4.2v.8h-1.7v3.5h-.8v-3.5h-1.7v-.8Z"
         id="path126" />
    </g>
    <rect
       class="st12"
       x="11.2"
       y="0"
       width="73"
       height="16.7"
       rx="8"
       ry="8"
       id="rect126" />
    <g
       id="g130">
      <path
         d="M21.1,4.5h7.7c2.8,0,3.9.8,3.9,2.7s-.9,3-3.9,3.1h-3.6v1.6h-4.1v-7.4ZM28,8v-1h-2.8v1h2.8Z"
         id="path127" />
      <path
         d="M34.7,8.6v-4h4.4v4.1h2.6v-4.1h4.4v4c0,2.5-1.7,3.5-5.7,3.5s-5.7-1-5.7-3.5Z"
         id="path128" />
      <path
         d="M52.1,10l-4.3-5.5h5l1.3,2.2h.2l1.3-2.2h5l-4.3,5.5v1.9h-4.2v-1.9Z"
         id="path129" />
      <path
         d="M64.1,4.5h6.8l3.3,7.4h-4.5l-.5-1h-3.6l-.5,1h-4.5l3.3-7.4ZM68.3,8.9l-.7-1.6h-.2l-.7,1.6h1.7Z"
         id="path130" />
    </g>
  </g>
</svg>
