<?xml version="1.0" encoding="UTF-8" standalone="no"?>
<svg
   id="Capa_1"
   version="1.1"
   viewBox="0 0 49 55"
   sodipodi:docname="puya-sync-button.svg"
   width="49"
   height="55"
   inkscape:version="1.4 (86a8ad7, 2024-10-11)"
   xmlns:inkscape="http://www.inkscape.org/namespaces/inkscape"
   xmlns:sodipodi="http://sodipodi.sourceforge.net/DTD/sodipodi-0.dtd"
   xmlns="http://www.w3.org/2000/svg"
   xmlns:svg="http://www.w3.org/2000/svg">
  <sodipodi:namedview
     id="namedview9"
     pagecolor="#ffffff"
     bordercolor="#000000"
     borderopacity="0.25"
     inkscape:showpageshadow="2"
     inkscape:pageopacity="0.0"
     inkscape:pagecheckerboard="0"
     inkscape:deskcolor="#d1d1d1"
     inkscape:zoom="20.133259"
     inkscape:cx="24.635853"
     inkscape:cy="26.697118"
     inkscape:window-width="1920"
     inkscape:window-height="1001"
     inkscape:window-x="-9"
     inkscape:window-y="-9"
     inkscape:window-maximized="1"
     inkscape:current-layer="Capa_1"
     inkscape:document-units="mm" />
  <!-- Generator: Adobe Illustrator 29.1.0, SVG Export Plug-In . SVG Version: 2.1.0 Build 142)  -->
  <defs
     id="defs1">
    <style
       id="style1">
      .st0 {
        fill: #010202;
      }

      .st1 {
        fill: none;
        stroke: #fff;
        stroke-miterlimit: 10;
      }

      .st2 {
        fill: #c0e3ec;
      }

      .st3 {
        fill: #484543;
        stroke: #515151;
        stroke-miterlimit: 11.3;
      }

      .st4 {
        fill: #fff;
      }
    </style>
  </defs>
  <circle
     class="st2"
     cx="24.5"
     cy="27.5"
     r="14.2"
     id="circle1">
    <circle
       cx="24.5"
       cy="27.5"
       r="7.5"
       id="SYNC_PARAM"
       style="fill:none;stroke:none;stroke-width:0" />
  </circle>
  <g
     id="g9">
    <g
       id="g3">
      <circle
         class="st3"
         cx="24.4"
         cy="27.5"
         r="12.5"
         id="circle2" />
      <circle
         class="st0"
         cx="24.4"
         cy="27.5"
         r="11.8"
         id="circle3" />
    </g>
    <g
       id="g8">
      <g
         id="g5">
        <path
           class="st0"
           d="m 25.2,19 c 4.7,0 8.5,3.8 8.5,8.5 0,4.7 -3.8,8.5 -8.5,8.5"
           id="path3" />
        <g
           id="g4">
          <path
             class="st1"
             d="m 26.3,19.1 c 4.1,0.6 7.3,4.1 7.3,8.4 0,4.3 -3.8,8.5 -8.5,8.5"
             id="path4" />
          <polygon
             class="st4"
             points="28.2,21 26.6,19.2 28.4,17.6 27,17.5 25.2,19 26.7,20.9 "
             id="polygon4" />
        </g>
      </g>
      <g
         id="g7">
        <path
           class="st0"
           d="M 23.7,36 C 19,36 15.2,32.2 15.2,27.5 15.2,22.8 19,19 23.7,19"
           id="path5" />
        <g
           id="g6">
          <path
             class="st1"
             d="M 22.5,35.9 C 18.4,35.3 15.2,31.8 15.2,27.5 15.2,23.2 19,19 23.7,19"
             id="path6" />
          <polygon
             class="st4"
             points="20.7,34 22.2,35.8 20.4,37.4 21.8,37.5 23.7,36 22.1,34.1 "
             id="polygon6" />
        </g>
      </g>
    </g>
  </g>
</svg>
